<?xml version="1.0" standalone="no"?>
<!DOCTYPE svg PUBLIC "-//W3C//DTD SVG 20010904//EN"
 "http://www.w3.org/TR/2001/REC-SVG-20010904/DTD/svg10.dtd">
<svg version="1.0" xmlns="http://www.w3.org/2000/svg"
 width="657.000000pt" height="657.000000pt" viewBox="0 0 657.000000 657.000000"
 preserveAspectRatio="xMidYMid meet">
<metadata>
Created by potrace 1.14, written by Peter Selinger 2001-2017
</metadata>
<g transform="translate(0.000000,657.000000) scale(0.100000,-0.100000)"
fill="#000000" stroke="none">
<path d="M3069 6566 c-2 -2 -40 -6 -84 -10 -105 -8 -152 -14 -255 -33 -47 -8
-98 -17 -115 -20 -87 -14 -419 -111 -490 -143 -11 -5 -65 -27 -120 -50 -242
-101 -490 -246 -706 -411 -217 -166 -375 -321 -580 -566 -72 -87 -218 -303
-290 -430 -208 -366 -347 -793 -403 -1238 -23 -181 -24 -607 -2 -735 3 -14 7
-47 11 -75 3 -27 8 -59 10 -70 3 -11 7 -36 9 -55 20 -137 77 -355 139 -530
288 -811 881 -1476 1652 -1854 362 -178 724 -279 1145 -322 145 -15 587 -9
685 10 11 2 45 7 75 11 400 50 838 206 1220 433 311 184 642 472 867 755 248
310 432 644 552 1002 38 112 69 213 76 243 2 9 15 69 28 132 24 110 46 240 52
305 25 268 25 559 -1 753 -61 469 -181 835 -401 1230 -151 270 -324 496 -560
729 -279 275 -609 502 -964 661 -165 74 -448 170 -581 196 -12 2 -54 11 -93
19 -38 9 -90 18 -115 22 -24 4 -47 8 -50 10 -5 3 -33 6 -220 24 -73 8 -484 13
-491 7z m521 -239 c14 -3 48 -8 75 -11 391 -40 837 -197 1220 -429 247 -149
583 -444 764 -672 40 -49 79 -98 88 -109 32 -40 155 -232 209 -327 180 -318
320 -735 360 -1074 3 -22 7 -51 9 -65 18 -101 25 -460 11 -595 -15 -140 -17
-161 -21 -187 -3 -16 -7 -43 -10 -60 -86 -530 -311 -1022 -663 -1452 -95 -117
-311 -330 -432 -427 -395 -316 -844 -526 -1320 -619 -230 -44 -346 -55 -590
-55 -259 0 -374 11 -625 60 -125 25 -398 104 -480 140 -16 8 -64 28 -105 45
-349 149 -670 369 -955 655 -362 363 -615 787 -764 1280 -17 55 -32 111 -35
125 -2 14 -11 52 -19 85 -8 33 -18 80 -22 105 -4 25 -9 52 -10 61 -2 9 -6 40
-10 70 -3 30 -8 61 -10 69 -8 30 -18 229 -18 355 0 119 11 333 18 345 1 3 6
32 9 65 4 33 9 67 11 75 2 8 6 31 9 50 25 159 96 409 166 584 44 111 142 313
190 392 22 36 40 68 40 70 0 12 162 241 229 323 318 395 754 723 1201 905 36
15 74 31 85 36 43 21 281 95 339 106 10 2 33 8 50 13 42 13 140 32 229 45 27
4 57 9 68 11 11 2 56 7 102 11 45 3 84 8 87 11 6 6 489 -4 520 -10z"/>
<path d="M2749 6016 c-2 -2 -29 -6 -59 -9 -91 -10 -326 -80 -450 -134 -194
-85 -377 -186 -451 -251 -146 -129 -180 -393 -72 -557 39 -59 1152 -1173 1194
-1195 100 -52 216 -13 262 89 21 45 22 55 23 836 1 850 1 860 -51 969 -59 125
-197 228 -325 242 -30 4 -58 8 -61 10 -3 2 -8 2 -10 0z"/>
<path d="M3783 5995 c-153 -42 -269 -149 -319 -295 -18 -52 -19 -101 -20 -865
0 -469 3 -825 8 -845 30 -112 136 -169 248 -132 39 13 118 88 598 566 305 303
571 576 592 607 71 102 85 153 84 284 -1 78 -5 99 -31 155 -68 148 -217 256
-530 386 -95 40 -333 123 -372 130 -14 3 -29 7 -33 10 -21 13 -176 12 -225 -1z"/>
<path d="M1250 4943 c-198 -29 -290 -108 -433 -373 -88 -162 -195 -443 -222
-577 -28 -141 -25 -223 12 -316 52 -132 151 -223 288 -263 55 -16 126 -18 880
-18 l821 -1 49 25 c86 45 123 162 81 253 -23 46 -1112 1137 -1188 1189 -64 43
-122 67 -183 74 -22 3 -49 6 -60 8 -11 1 -31 1 -45 -1z"/>
<path d="M5266 4928 c-28 -4 -84 -23 -125 -44 -72 -35 -103 -63 -644 -603
-378 -377 -574 -580 -587 -607 -46 -93 -9 -208 82 -256 l43 -22 805 -1 c871
-1 874 -1 974 53 68 36 159 130 192 199 15 30 33 84 39 119 19 99 11 154 -46
332 -93 287 -237 588 -331 693 -95 106 -253 160 -402 137z"/>
<path d="M3248 3675 c-2 -2 -19 -5 -38 -8 -56 -7 -147 -56 -194 -103 -185
-188 -135 -501 97 -613 71 -35 101 -42 177 -42 72 0 104 8 170 41 303 154 265
602 -60 708 -32 11 -145 23 -152 17z"/>
<path d="M935 3142 c-48 -8 -114 -38 -170 -77 -161 -114 -227 -291 -180 -480
9 -33 17 -67 19 -76 66 -267 266 -682 379 -786 113 -105 247 -143 394 -113
131 27 142 37 759 654 374 374 577 584 588 609 54 117 5 225 -117 262 -32 10
-229 12 -847 12 -443 -1 -814 -3 -825 -5z"/>
<path d="M4040 3137 c-86 -18 -150 -92 -150 -175 0 -88 9 -98 586 -674 302
-301 565 -560 584 -577 102 -88 263 -125 393 -90 158 42 260 150 381 402 75
155 187 457 212 567 22 102 9 205 -40 305 -47 94 -120 167 -216 213 l-75 37
-815 1 c-474 0 -834 -3 -860 -9z"/>
<path d="M3573 2693 c-23 -8 -55 -28 -72 -45 -60 -61 -58 -35 -56 -943 2 -906
-1 -857 59 -960 33 -55 108 -129 165 -161 60 -34 152 -57 222 -56 209 2 772
233 948 389 172 152 193 427 46 608 -54 66 -1107 1116 -1145 1141 -51 34 -115
44 -167 27z"/>
<path d="M2920 2679 c-34 -15 -178 -153 -616 -592 -486 -488 -575 -581 -603
-635 -50 -97 -64 -186 -47 -305 7 -47 61 -150 105 -199 146 -164 716 -410 980
-423 166 -8 320 85 397 240 34 69 38 82 54 180 4 28 7 401 6 830 l-1 780 -23
43 c-48 91 -154 125 -252 81z"/>
</g>
</svg>
